<?xml version="1.0" encoding="UTF-8" standalone="no"?>
<!-- Generator: Adobe Illustrator 16.0.0, SVG Export Plug-In . SVG Version: 6.00 Build 0)  -->

<svg
   xmlns:dc="http://purl.org/dc/elements/1.1/"
   xmlns:cc="http://creativecommons.org/ns#"
   xmlns:rdf="http://www.w3.org/1999/02/22-rdf-syntax-ns#"
   xmlns:svg="http://www.w3.org/2000/svg"
   xmlns="http://www.w3.org/2000/svg"
   xmlns:sodipodi="http://sodipodi.sourceforge.net/DTD/sodipodi-0.dtd"
   xmlns:inkscape="http://www.inkscape.org/namespaces/inkscape"
   version="1.1"
   x="0px"
   y="0px"
   width="800px"
   height="841.89px"
   viewBox="0 0 800 841.89"
   enable-background="new 0 0 800 841.89"
   xml:space="preserve"
   id="svg2"
   inkscape:version="0.48.3.1 r9886"
   sodipodi:docname="robotyellow.svg"><metadata
   id="metadata205"><rdf:RDF><cc:Work
       rdf:about=""><dc:format>image/svg+xml</dc:format><dc:type
         rdf:resource="http://purl.org/dc/dcmitype/StillImage" /></cc:Work></rdf:RDF></metadata><defs
   id="defs203" /><sodipodi:namedview
   pagecolor="#ffffff"
   bordercolor="#666666"
   borderopacity="1"
   objecttolerance="10"
   gridtolerance="10"
   guidetolerance="10"
   inkscape:pageopacity="0"
   inkscape:pageshadow="2"
   inkscape:window-width="1280"
   inkscape:window-height="741"
   id="namedview201"
   showgrid="false"
   inkscape:zoom="0.28032165"
   inkscape:cx="400"
   inkscape:cy="420.94501"
   inkscape:window-x="0"
   inkscape:window-y="27"
   inkscape:window-maximized="1"
   inkscape:current-layer="svg2" />
<g
   id="Calque_1"
   display="none"
   opacity="0.5">
	<g
   display="inline"
   opacity="0.2"
   id="g5">
		<g
   id="g7">
			<path
   d="M302.796,244.299c-5.289,0.321-11.189,1.833-13.432,7.202c-2.092,5.009-0.022,10.533,2.905,14.737     c6.904,9.917,21.445,13.888,32.541,9.191c8.731-3.696,8.435-14.313,4.06-21.195c-6.08-9.565-17.986-12.463-28.493-9.845     c-3.127,0.779-1.8,5.601,1.329,4.821c7.885-1.964,15.859-0.327,21.469,5.758c3.622,3.929,6.031,11.382,0.896,15.142     c-6.871,5.029-18.888,1.746-24.69-3.349c-2.955-2.594-5.496-6.355-5.862-10.352c-0.493-5.368,4.98-6.848,9.279-7.109     C306,249.105,306.019,244.104,302.796,244.299L302.796,244.299z"
   id="path9" />
		</g>
	</g>
	<g
   display="inline"
   opacity="0.2"
   id="g11">
		<g
   id="g13">
			<path
   d="M391.094,238.558c-9.554,3.197-15.575,11.484-12.207,21.597c3.195,9.59,13.11,14.306,22.673,12.88     c10.278-1.533,17.097-10.274,14.074-20.453c-2.902-9.771-13.163-16.119-23.065-15.607c-3.208,0.166-3.224,5.167,0,5     c15.321-0.791,28.048,20.895,8.765,26.01c-7.051,1.871-13.966-1.907-17.203-8.159c-3.84-7.42,1.218-14.08,8.291-16.446     C395.464,242.362,394.16,237.532,391.094,238.558L391.094,238.558z"
   id="path15" />
		</g>
	</g>
	<g
   display="inline"
   opacity="0.2"
   id="g17">
		<g
   id="g19">
			<path
   d="M306.53,257.782c-0.31,2.118-0.399,4.298,1.087,6.015c1.074,1.241,3.039,1.46,4.502,0.892     c2.764-1.073,5.429-3.853,4.836-7.024c-0.389-2.077-2.568-2.884-4.403-3.05c-1.104-0.1-2.247,0.091-3.33,0.272     c-1.514,0.253-2.998,0.682-4.458,1.148c-1.297,0.414-2.119,1.721-1.746,3.075c0.35,1.273,1.777,2.161,3.075,1.746     c1.418-0.453,2.853-0.857,4.318-1.124c0.216-0.04,1.202-0.17,0.263-0.051c0.234-0.03,0.469-0.051,0.705-0.067     c0.418-0.03,0.838-0.029,1.256,0.008c0.394,0.035-0.728-0.107-0.349-0.048c0.073,0.011,0.145,0.026,0.216,0.042     c0.13,0.028,0.257,0.066,0.381,0.11c0.202,0.07-0.729-0.366-0.235-0.083c0.447,0.257-0.546-0.497-0.195-0.15     c0.286,0.283-0.443-0.66-0.204-0.259c0.203,0.339-0.269-0.768-0.138-0.322c0.134,0.455-0.067-0.772-0.043-0.366     c0.016,0.26-0.101,0.776,0.065-0.3c-0.046,0.296-0.375,1.03,0.058,0.027c-0.097,0.224-0.222,0.435-0.356,0.637     c-0.131,0.197-0.482,0.626,0.144-0.168c-0.076,0.096-0.157,0.189-0.238,0.281c-0.181,0.202-0.377,0.39-0.582,0.567     c-0.45,0.39,0.3-0.219,0.165-0.117c-0.099,0.074-0.2,0.144-0.303,0.211c-0.214,0.141-0.44,0.264-0.674,0.37     c0.98-0.446,0.229-0.095-0.072-0.028c-0.509,0.114,0.745-0.072,0.317-0.041c-0.111,0.008-0.222,0.004-0.332-0.007     c1.033,0.106,0.576,0.1,0.313,0.004c0.878,0.316,0.603,0.273,0.395,0.155c-0.19-0.107-0.452-0.376,0.319,0.258     c-0.037-0.03-0.07-0.064-0.104-0.098c-0.284-0.287,0.42,0.575,0.233,0.312c-0.042-0.059-0.077-0.122-0.111-0.185     c-0.209-0.385,0.257,0.652,0.133,0.328c-0.056-0.146-0.093-0.299-0.125-0.452c-0.046-0.219-0.082-0.682,0.032,0.286     c-0.013-0.112-0.02-0.225-0.026-0.337c-0.014-0.257-0.005-0.515,0.008-0.771c0.008-0.146,0.021-0.291,0.036-0.436     c0.063-0.643-0.08,0.523-0.014,0.07c0.197-1.347-0.312-2.681-1.746-3.075C308.416,255.709,306.727,256.432,306.53,257.782     L306.53,257.782z"
   id="path21" />
		</g>
	</g>
	<g
   display="inline"
   opacity="0.2"
   id="g23">
		<g
   id="g25">
			<path
   d="M397.295,250.405c-0.203,0.174-0.151,0.134,0.155-0.119c-0.115,0.08-0.241,0.142-0.365,0.203     c0.745-0.37-0.046-0.009-0.27,0.056c-0.612,0.18-1.258,0.369-1.785,0.736c-2.063,1.439-2.005,3.796-1.625,6.038     c0.168,0.99,1.402,1.957,2.411,1.835c2.586-0.311,6.151-0.71,6.458-3.955c0.08-0.85-0.323-1.721-0.769-2.418     c-0.168-0.263-0.35-0.518-0.521-0.778c-0.09-0.138-0.175-0.278-0.258-0.421c-0.11-0.189-0.373-0.879-0.064-0.074     c-0.487-1.271-1.665-2.134-3.075-1.746c-1.218,0.335-2.234,1.801-1.746,3.075c0.423,1.105,1.146,1.949,1.648,2.995     c-0.342-0.712-0.194-0.491-0.14-0.272c-0.127-0.508-0.104-0.439,0-0.953c0.081-0.401,0.187-0.472,0.442-0.76     c-0.208,0.235,0.605-0.372,0.058-0.081c0.645-0.343,0.224-0.093,0.029-0.028c-0.185,0.062-0.375,0.107-0.563,0.154     c-0.547,0.136-1.087,0.213-1.498,0.263c0.804,0.612,1.607,1.224,2.411,1.835c-0.056-0.341-0.067-0.404-0.035-0.189     c-0.017-0.16-0.028-0.32-0.034-0.481c-0.005-0.139-0.004-0.278,0.002-0.417c0.017-0.628-0.12,0.525,0.013,0     c0.087-0.256,0.054-0.181-0.099,0.227c0.21-0.41-0.418,0.45-0.101,0.148c-0.369,0.267-0.447,0.334-0.235,0.201     c0.386-0.233-0.613,0.229-0.179,0.068c1.2-0.445,2.271-0.737,3.271-1.606c1.029-0.894,0.913-2.623,0-3.535     C399.816,249.391,398.322,249.512,397.295,250.405L397.295,250.405z"
   id="path27" />
		</g>
	</g>
	<g
   display="inline"
   opacity="0.2"
   id="g29">
		<g
   id="g31">
			<path
   d="M345.97,295.017c-2.261,6.411-5.83,12.304-5.423,19.331c0.084,1.449,1.08,2.381,2.5,2.5     c4.719,0.394,16.099,1.735,16.313-5.7c0.159-5.528-7.101-11.123-10.545-14.568c-2.281-2.282-5.817,1.253-3.535,3.535     c3.134,3.135,6.863,6.319,8.88,10.34c1.258,2.507-10.052,1.481-11.112,1.393c0.833,0.833,1.667,1.667,2.5,2.5     c-0.376-6.491,3.153-12.072,5.244-18.002C351.866,293.297,347.035,291.998,345.97,295.017L345.97,295.017z"
   id="path33" />
		</g>
	</g>
	<g
   display="inline"
   opacity="0.2"
   id="g35">
		<g
   id="g37">
			<path
   d="M400.078,182.002c-4.055-13.351-27.164-12.334-37.815-12.142c-17.097,0.309-32.897,3.181-48.608,10.055     c-43.91,19.211-69.817,66.891-76.48,112.453c-2.173,14.861-2.804,29.906-2.767,44.911c0.039,15.533,0.428,31.337,2.251,46.772     c1.959,16.584,5.969,32.722,4.869,49.546c-1.145,17.51,1.061,36.139-4.271,53.071c-0.971,3.085,3.856,4.394,4.821,1.33     c4.447-14.124,3.417-28.89,3.728-43.487c0.155-7.258,1.12-14.41,0.918-21.686c-0.195-7.036-1.236-14.042-2.328-20.985     c-4.301-27.338-5.791-54.947-4.657-82.622c1.119-27.302,5.792-55.251,19.42-79.29c11.28-19.896,26.208-38.261,46.033-50.065     c15.026-8.948,31.218-13.325,48.48-14.6c8.565-0.633,17.322-0.775,25.849,0.386c4.961,0.675,13.993,1.945,15.735,7.683     C396.19,186.407,401.018,185.095,400.078,182.002L400.078,182.002z"
   id="path39" />
		</g>
	</g>
	<g
   display="inline"
   opacity="0.2"
   id="g41">
		<g
   id="g43">
			<path
   d="M376.335,177.077c24.517,7.797,47.984,18.913,63.442,40.366c14.732,20.446,19.838,47.5,21.671,72.121     c0.97,13.038,0.281,26.025-0.157,39.067c-0.524,15.633-0.955,31.268-1.919,46.881c-1.829,29.653-9.898,59.833-2.908,89.347     c0.411,1.733,0.935,3.438,1.459,5.139c0.948,3.07,5.775,1.76,4.822-1.33c-9.182-29.746-0.54-61.103,1.506-91.277     c1.059-15.616,1.47-31.27,1.979-46.91c0.429-13.165,1.122-26.254,0.318-39.42c-1.473-24.153-6.499-49.212-18.721-70.352     c-12.007-20.767-32.555-34.368-54.409-42.978c-5.173-2.038-10.457-3.792-15.754-5.476     C374.583,171.276,373.275,176.104,376.335,177.077L376.335,177.077z"
   id="path45" />
		</g>
	</g>
	<g
   display="inline"
   opacity="0.2"
   id="g47">
		<g
   id="g49">
			<path
   d="M241,473.167c52.272,0.023,104.515,1.892,156.763,3.234c13.321,0.342,26.588,1.655,39.911,2.031     c7.266,0.205,14.588,0.18,21.81-0.726c4.628-0.581,9.643-1.475,13.284-4.606c2.449-2.105-1.104-5.626-3.535-3.535     c-3.646,3.135-10.158,3.285-14.664,3.63c-7.182,0.55-14.425,0.358-21.613,0.078c-13.702-0.533-27.34-1.665-41.051-2.024     c-50.295-1.316-100.586-3.06-150.904-3.082C237.775,468.166,237.776,473.166,241,473.167L241,473.167z"
   id="path51" />
		</g>
	</g>
	<g
   display="inline"
   opacity="0.2"
   id="g53">
		<g
   id="g55">
			<path
   d="M236.5,488.667c0.168,8.061-9.282,14.217-5.911,22.665c2.319,5.813,8.126,8.771,14.056,9.492     c17.664,2.148,34.916-6.38,52.355-7.657c1.402-0.103,2.442-1.062,2.5-2.5c0.5-12.503-1.873-24.85-2-37.334     c-0.012-1.148-0.761-2.067-1.835-2.411c-0.956-0.305-1.941-1.189-2.736-1.748c-2.646-1.857-5.14,2.48-2.523,4.318     c1.558,1.094,2.188,1.695,3.93,2.252c-0.612-0.804-1.224-1.607-1.835-2.411c0.127,12.484,2.5,24.831,2,37.334     c0.833-0.833,1.667-1.667,2.5-2.5c-15.16,1.11-29.586,6.813-44.754,7.866c-6.047,0.421-13.232-0.045-16.66-5.78     c-2.194-3.671,1.061-8.124,2.789-11.332c1.737-3.225,3.203-6.53,3.125-10.254C241.433,485.447,236.433,485.44,236.5,488.667     L236.5,488.667z"
   id="path57" />
		</g>
	</g>
	<g
   display="inline"
   opacity="0.2"
   id="g59">
		<g
   id="g61">
			<path
   d="M405.167,474c-0.836,13.95,2.214,29.48,18.709,30.78c7.978,0.629,16.029-1.125,24.046-0.833     c9.966,0.364,19.83,1.459,29.743-0.203c1.382-0.232,2.029-1.856,1.746-3.076c-1.216-5.222-1.242-10.775-3.506-15.71     c-2.738-5.97-4.605-12.284-7.413-18.22c-1.377-2.914-5.688-0.374-4.316,2.523c2.589,5.477,3.99,11.453,6.778,16.837     c2.514,4.854,2.418,10.667,3.635,15.899c0.582-1.025,1.164-2.051,1.746-3.076c-8.272,1.388-16.699,0.661-25.022,0.192     c-6.883-0.388-13.503,0.055-20.358,0.549c-7.07,0.511-13.983,0.342-18.115-6.294c-3.44-5.524-3.045-13.146-2.672-19.369     C410.36,470.778,405.359,470.797,405.167,474L405.167,474z"
   id="path63" />
		</g>
	</g>
	<g
   display="inline"
   opacity="0.2"
   id="g65">
		<g
   id="g67">
			<path
   d="M295,513.167c45.054,1.201,89.653-7.211,134.667-7.334c3.224-0.009,3.225-5.009,0-5     c-45.014,0.123-89.613,8.535-134.667,7.334C291.774,508.081,291.782,513.081,295,513.167L295,513.167z"
   id="path69" />
		</g>
	</g>
	<g
   display="inline"
   opacity="0.2"
   id="g71">
		<g
   id="g73">
			<path
   d="M404.332,210.923c-25.799-4.274-52.413-11.306-78.714-7.515c-26.659,3.843-48.923,19.55-63.044,42.283     c-6.608,10.638-10.276,22.211-12.362,34.469c-2.05,12.042-3.949,24.164-4.213,36.398c-0.186,8.618-0.302,21.122,8.139,26.075     c8.348,4.899,20.859,1.757,30.065,2.731c30.206,3.196,60.47,3.257,90.807,3.452c14.96,0.097,29.93-0.139,44.837-1.474     c8.901-0.797,16.097-4.498,20.162-12.706c3.757-7.586,4.074-16.667,4.343-24.96c0.345-10.642,1.359-21.397-0.697-31.917     c-2.188-11.183-8.293-21.11-15.132-30.024c-9.133-11.902-19.292-22.966-27.363-35.664c-1.724-2.712-6.052-0.207-4.317,2.523     c7.885,12.405,17.623,23.473,26.781,34.929c8.137,10.178,14.493,21.599,16.023,34.708c1.175,10.06,0.046,21.096-0.553,31.212     c-0.52,8.794-1.975,19.359-10.141,24.398c-5.227,3.226-12.405,2.825-18.296,3.205c-8.099,0.523-16.218,0.693-24.332,0.765     c-15.553,0.139-31.105-0.296-46.658-0.313c-16.015-0.018-32.003-0.929-47.948-2.392c-6.228-0.571-12.333-1.276-18.593-1.183     c-5.368,0.081-11.467,0.762-16.465-1.61c-7.25-3.44-5.801-18.269-5.578-24.763c0.34-9.861,1.881-19.665,3.498-29.382     c1.594-9.578,3.61-18.622,7.731-27.49c4.436-9.546,10.711-18.164,18.099-25.628c15.606-15.769,36.549-23.159,58.421-23.65     c21.613-0.486,42.982,4.832,64.17,8.342C406.155,216.267,407.507,211.449,404.332,210.923L404.332,210.923z"
   id="path75" />
		</g>
	</g>
	<g
   display="inline"
   opacity="0.2"
   id="g77">
		<g
   id="g79">
			<path
   d="M236.566,346.899c-17.622,16.604-25.777,40.392-35.725,61.839c1.553,0.42,3.106,0.841,4.659,1.262     c0-0.444,0-0.889,0-1.333c0-2.646-3.278-3.2-4.659-1.262c-5.831,8.186-10.715,17.624-10.341,27.928     c0.089,2.458,3.359,3.447,4.659,1.262c3.909-6.574,3.721-15.707,8.877-21.522c3.613-4.074,8.568,6.022,9.213,8.305     c1.914,6.77,0.649,14.365,0.584,21.29c-0.031,3.226,4.969,3.223,5,0c0.079-8.361,1.295-17.041-1.55-25.102     c-1.67-4.732-6.499-10.434-11.96-10.385c-9.82,0.088-10.834,18.757-14.482,24.891c1.553,0.421,3.106,0.841,4.659,1.262     c-0.342-9.453,4.326-17.919,9.659-25.405c-1.553-0.42-3.106-0.841-4.659-1.262c0,0.444,0,0.889,0,1.333     c0,2.348,3.574,3.6,4.659,1.262c9.748-21.016,17.677-44.559,34.942-60.828C242.452,348.219,238.91,344.69,236.566,346.899     L236.566,346.899z"
   id="path81" />
		</g>
	</g>
	<g
   display="inline"
   opacity="0.2"
   id="g83">
		<g
   id="g85">
			<path
   d="M453.167,364.667c0.755,10.623,8.34,19.818,14.907,27.639c7.487,8.916,16.086,16.784,23.825,25.462     c0.367-1.393,0.735-2.786,1.103-4.178c-11.403,4.218-16.744,30.156-0.668,30.911c1.942,0.091,3.051-2.178,2.158-3.762     c-4.048-7.188-10.136-19.647,1.131-23.316c12.245-3.987,18.319,8.724,20.3,18.576c0.636,3.159,5.455,1.818,4.822-1.33     c-2.798-13.91-12.087-26.745-27.706-21.658c-14.224,4.631-8.047,21.051-2.863,30.252c0.719-1.254,1.438-2.508,2.158-3.762     c-9.508-0.446-4.259-18.775,1.998-21.089c1.8-0.666,2.419-2.703,1.103-4.178c-6.833-7.662-14.319-14.715-21.153-22.382     c-6.491-7.281-15.384-16.908-16.114-27.184C457.939,361.469,452.938,361.447,453.167,364.667L453.167,364.667z"
   id="path87" />
		</g>
	</g>
	<g
   display="inline"
   opacity="0.2"
   id="g89">
		<g
   id="g91">
			<path
   d="M283.833,386c-0.896,10.268-4.388,25.987,3.045,34.768c5.696,6.729,15.772,3.882,23.387,3.682     c15.478-0.408,30.899,1.641,46.271,3.13c11.485,1.112,23.208,3.354,34.773,2.978c9.619-0.314,16.995-4.261,17.691-14.557     c0.366-5.416-1.075-11.084-1.841-16.415c-0.861-6.006-2.594-11.567-4.009-17.417c-0.489-2.021-1.773-2.914-3.766-3.157     c-5.129-0.628-10.11-2.037-15.264-2.617c-13.665-1.54-27.632-0.078-41.27,1.063c-18.164,1.518-36.397,1.969-54.517,4.043     c-3.165,0.362-3.2,5.366,0,5c14.352-1.643,28.752-2.181,43.153-3.146c13.298-0.891,26.542-2.428,39.884-2.533     c6.533-0.051,13.074,0.359,19.493,1.607c2.247,0.437,4.434,1.051,6.707,1.355c2.49,0.333,0.557-1.119,0.88,0.216     c1.375,5.683,3.025,11.083,3.888,16.915c0.898,6.066,3.241,13.784,0.691,19.699c-2.176,5.047-9.836,4.953-14.357,4.999     c-5.465,0.056-10.961-0.607-16.36-1.394c-13.656-1.987-27.631-3.015-41.396-4.098c-7.515-0.591-15.046-0.82-22.582-0.621     c-4.413,0.116-8.921,1.129-13.33,0.443c-11.974-1.863-6.852-26.136-6.17-33.943C289.114,382.787,284.112,382.813,283.833,386     L283.833,386z"
   id="path93" />
		</g>
	</g>
	<g
   id="Calque_2"
   display="inline">
	</g>
</g>
<g
   id="Calque_3"
   transform="matrix(2.4979194,0,0,2.4796555,-473.74735,-402.61151)">
	<g
   id="g97">
		<g
   id="g99">
			<path
   d="m 462.942,324.325 c 18.584,6.43 24.194,29.65 24.165,47.456 -0.011,6.449 9.989,6.448 10,0 0.02,-11.991 -2.875,-24.323 -7.637,-35.295 -4.726,-10.889 -12.703,-17.939 -23.87,-21.803 -6.111,-2.115 -8.713,7.547 -2.658,9.642 l 0,0 z"
   id="path101"
   inkscape:connector-curvature="0"
   style="fill:#3e3d40" />
		</g>
	</g>
	<g
   id="g103">
		<g
   id="g105">
			<path
   d="m 244.433,318.665 c -15.343,-2.791 -26.693,15.713 -32.019,27.641 -4.512,10.104 -14.785,32.595 -1.798,40.513 5.521,3.367 10.542,-5.284 5.047,-8.635 -2.557,-1.559 -0.671,-8.372 -0.164,-10.654 1.233,-5.55 3.273,-10.979 5.549,-16.178 1.747,-3.992 3.701,-7.856 6.182,-11.445 2.546,-3.683 9.195,-12.573 14.544,-11.601 6.304,1.148 8.997,-8.488 2.659,-9.641 l 0,0 z"
   id="path107"
   inkscape:connector-curvature="0"
   style="fill:#3e3d40" />
		</g>
	</g>
	<g
   id="g109">
		<path
   d="m 457.6,466.277 c 2.918,-14.135 5.867,-121.639 2.599,-161.16 -4.654,-56.281 -22.574,-109.789 -78.543,-121.983 -26.389,-5.75 -59.389,-1.783 -59.389,-1.783 -64.5,18.179 -79.945,67.168 -82.667,124.283 -2,41.979 -0.667,78.008 -0.667,117.672 0,13.883 -1.333,34.046 -0.667,47.598 L 457.6,466.277 c -24.667,3.306 -54,0 -80,1.322 -34.667,1.983 -69.333,2.644 -104,2.644 -10,0 -13.833,1.507 -29.333,0.847"
   id="path111"
   inkscape:connector-curvature="0"
   style="fill:#e2e15d" />
		<g
   id="g113">
			<path
   d="m 460.011,466.942 c 2.23,-11.245 2.085,-23.249 2.572,-34.652 0.851,-19.891 1.286,-39.803 1.475,-59.71 0.371,-39.034 0.948,-79.125 -9.889,-116.991 -5.649,-19.741 -15.042,-38.774 -29.979,-53.134 -16.375,-15.743 -37.93,-22.438 -60.136,-24.323 -11.37,-0.965 -22.859,-0.758 -34.232,0.038 -7.477,0.523 -13.826,2.287 -20.924,4.981 -19.07,7.24 -35.74,19.206 -47.741,35.769 -21.558,29.753 -23.674,68.734 -24.717,104.097 -0.77,26.093 -0.349,52.2 -0.117,78.298 0.206,23.155 -1.57,46.468 -0.557,69.589 0.059,1.339 1.093,2.529 2.5,2.5 48.013,-1.013 96.025,-2.025 144.038,-3.038 25.099,-0.53 50.198,-1.06 75.296,-1.589 0,-1.667 0,-3.333 0,-5 -17.633,2.25 -35.464,1.471 -53.186,1.126 -19.448,-0.378 -38.786,0.939 -58.211,1.649 -19.614,0.716 -39.242,1.041 -58.868,1.154 -14.337,0.083 -28.75,1.428 -43.069,0.883 -3.226,-0.123 -3.214,4.878 0,5 13.683,0.521 27.409,-0.816 41.107,-0.873 20.281,-0.084 40.562,-0.449 60.831,-1.164 18.815,-0.665 37.553,-1.987 56.39,-1.682 18.332,0.297 36.763,1.234 55.007,-1.094 3.096,-0.395 3.314,-5.07 0,-5 -48.013,1.013 -96.025,2.025 -144.038,3.038 -25.099,0.53 -50.198,1.06 -75.296,1.589 0.833,0.833 1.667,1.667 2.5,2.5 -0.568,-12.966 0.206,-25.962 0.542,-38.925 0.373,-14.419 0.038,-28.867 -0.105,-43.289 -0.296,-29.854 -0.653,-59.798 1.27,-89.609 1.334,-20.683 4.688,-41.698 13.267,-60.715 8.432,-18.693 22.381,-33.684 40.219,-43.731 4.998,-2.815 10.257,-5.139 15.614,-7.173 3.772,-1.433 7.972,-3.333 12,-3.754 8.754,-0.916 17.579,-1.233 26.376,-1.181 24.468,0.145 48.929,4.725 67.997,21.006 32.064,27.379 38.887,75.459 40.547,115.127 1.186,28.356 0.73,56.816 0.031,85.179 -0.322,13.059 -0.764,26.116 -1.445,39.161 -0.39,7.46 -0.43,15.258 -1.889,22.611 -0.627,3.152 4.192,4.494 4.82,1.332 l 0,0 z"
   id="path115"
   inkscape:connector-curvature="0"
   style="fill:#d6ab4a" />
		</g>
	</g>
	<g
   id="g117">
		<g
   id="g119">
			<path
   d="m 360.196,471.051 -77.386,1.746 c 25.795,-0.091 51.591,-0.586 77.386,-1.746 z"
   id="path121"
   inkscape:connector-curvature="0"
   style="fill:#e8b749" />
		</g>
		<g
   id="g123">
			<path
   d="m 408.918,469.952 -2.8,0.063 c 0.936,0.019 1.869,0.036 2.805,0.057 -10e-4,-0.041 -0.004,-0.081 -0.005,-0.12 z"
   id="path125"
   inkscape:connector-curvature="0"
   style="fill:#e8b749" />
		</g>
		<g
   id="g127">
			<path
   d="m 264.754,473.204 -20.489,0.462 c 10.176,0.434 15.324,-0.067 20.489,-0.462 z"
   id="path129"
   inkscape:connector-curvature="0"
   style="fill:#e8b749" />
		</g>
		<g
   id="g131">
			<path
   d="m 411.057,464.945 c -0.442,-13.73 -38.331,-18.805 -48.718,-25.881 -77.386,-52.716 -15.196,-2.143 49.205,-45.536 14.298,-9.634 -110.401,-25.089 -97.901,-40.589 9.5,-12 80,-45.375 122.883,-54.22 14.724,-3.037 -59.883,-7.155 -81.837,-0.184 -13.454,4.271 -28.046,-1.971 -32.046,-16.471 -3.5,-13 -4.5,-28.5 -3.5,-41.5 1,-13 7.5,-26.5 3.5,-39 -1.78,-6.525 -5.499,-12.871 -9.688,-18.836 -54.915,20.557 -68.661,66.977 -71.213,120.546 -2,41.979 -0.667,78.008 -0.667,117.672 0,13.882 -1.333,34.046 -0.667,47.597 l 127.715,-2.693 c -1.928,0.094 -3.856,0.178 -5.784,0.264 l 45.922,-1.035 c -0.621,-0.014 -1.242,-0.025 -1.863,-0.037 l 4.659,-0.097 z"
   id="path133"
   inkscape:connector-curvature="0"
   style="fill:#e8b749" />
		</g>
		<g
   id="g135">
			<path
   d="m 264.754,473.204 18.056,-0.407 c -3.07,0.011 -6.141,0.022 -9.211,0.022 -3.435,0 -6.142,0.178 -8.845,0.385 z"
   id="path137"
   inkscape:connector-curvature="0"
   style="fill:#e8b749" />
		</g>
	</g>
	<g
   id="g139">
		<path
   d="m 435.509,295.726 c -66.239,0.319 -114.142,7.319 -166.686,-3.846 l -1.086,-0.384 c -5.43,-11.538 -4.919,-20.7 -5.43,-29.613 -0.881,-15.405 5.43,-25.767 14.66,-36.919 21.175,-23.844 72.213,-33.843 108.048,-23.075 27.148,8.077 47.784,25.222 52.67,45.99 1.629,8.076 0.377,37.173 -1.634,46.693"
   id="path141"
   inkscape:connector-curvature="0"
   style="fill:#f6f6f6" />
		<g
   id="g143">
			<path
   d="m 435.509,293.226 c -55.168,0.321 -111.493,7.654 -166.021,-3.757 -1.066,-0.223 -2.448,-7.039 -2.811,-8.438 -0.813,-3.142 -1.162,-6.38 -1.411,-9.607 -0.507,-6.578 -1,-13.422 0.142,-19.943 2.05,-11.7 10.262,-22.797 19.141,-30.355 17.658,-15.03 43.483,-20.436 66.048,-21.025 27.639,-0.723 57.831,8.486 75.801,30.529 7.358,9.026 9.495,18.748 9.535,30.035 0.039,10.953 -0.136,22.468 -2.293,33.243 -0.63,3.148 4.189,4.489 4.822,1.329 1.774,-8.867 2.073,-18.117 2.357,-27.128 0.27,-8.548 0.688,-17.432 -2.127,-25.62 -7.438,-21.634 -29.328,-35.098 -49.911,-42.038 -21.972,-7.409 -46.5,-6.706 -68.826,-1.305 -21.426,5.183 -40.281,15.713 -52.473,34.414 -9.517,14.597 -9.483,33.913 -5.225,50.361 0.663,2.56 1.935,8.969 4.813,9.987 4.25,1.504 9.057,1.973 13.496,2.708 9.371,1.551 18.83,2.545 28.303,3.201 42.113,2.916 84.495,-1.344 126.638,-1.589 3.225,-0.021 3.227,-5.021 0.002,-5.002 l 0,0 z"
   id="path145"
   inkscape:connector-curvature="0"
   style="fill:#f6f6f6" />
		</g>
	</g>
	<g
   id="g147">
		<path
   d="m 398.669,248.479 c -13.047,0.438 -18.224,15.537 -6.737,22.616 17.269,11.859 25.557,-23.247 6.737,-22.616"
   id="path149"
   inkscape:connector-curvature="0"
   style="fill:#3e3d40" />
	</g>
	<g
   id="g151">
		<path
   d="m 265,203 c 4.5,9.5 18.329,5.87 19,-3.5 0.949,-13.25 -14.5,-5 -19,3.5"
   id="path153"
   inkscape:connector-curvature="0"
   style="fill:#ffed00" />
		<g
   id="g155">
			<path
   d="m 262.841,204.262 c 6.435,12.303 24.806,6.135 23.614,-7.333 -0.497,-5.621 -5.207,-7.778 -10.263,-6.348 -5.517,1.56 -10.597,6.246 -13.352,11.158 -1.579,2.815 2.74,5.335 4.317,2.523 1.188,-2.118 12.006,-13.582 14.096,-8.024 3.277,8.717 -9.965,13.397 -14.096,5.5 -1.493,-2.858 -5.808,-0.33 -4.316,2.524 l 0,0 z"
   id="path157"
   inkscape:connector-curvature="0"
   style="fill:#ffed00" />
		</g>
	</g>
	<g
   id="g159">
		<path
   d="m 434.383,203 c -4.926,9.5 -20.06,5.87 -20.795,-3.5 -1.039,-13.25 15.869,-5 20.795,3.5"
   id="path161"
   inkscape:connector-curvature="0"
   style="fill:#ffed00" />
		<g
   id="g163">
			<path
   d="m 432.225,201.738 c -4.302,7.492 -17.907,4.35 -16.012,-4.995 0.689,-3.399 5.848,-0.968 7.609,-0.072 3.362,1.71 6.422,4.375 8.402,7.591 1.687,2.74 6.013,0.23 4.316,-2.523 -3.233,-5.252 -8.61,-9.331 -14.489,-11.163 -5.054,-1.575 -10.292,0.598 -10.898,6.239 -1.531,14.244 18.588,19.292 25.388,7.447 1.608,-2.801 -2.712,-5.319 -4.316,-2.524 l 0,0 z"
   id="path165"
   inkscape:connector-curvature="0"
   style="fill:#ffed00" />
		</g>
	</g>
	<path
   d="m 417.846,387 c 0,6.628 -5.372,12 -12,12 H 305.093 c -6.627,0 -12,-5.372 -12,-12 v -17.125 c 0,-6.628 5.373,-12 12,-12 h 100.753 c 6.628,0 12,5.372 12,12 V 387 z"
   id="path167"
   inkscape:connector-curvature="0"
   style="fill:#d8d7c7" />
	<g
   id="g169">
		<path
   d="m 250.965,445.253 c -25.118,4.334 -24.578,42.81 -2.676,47.62 27.875,5.771 58.31,3.208 86.754,3.208 27.021,0 53.759,0.961 80.498,1.923 17.92,0.32 43.084,-0.622 46.732,-16.953 4.681,-20.944 -8.903,-33.066 -23.979,-34.67 -24.176,-2.886 -48.639,-3.528 -73.1,-4.169 -24.177,-0.962 -48.64,0.321 -72.817,0.321 -8.533,0 -17.066,0.319 -25.315,0.641 -2.844,0 -8.946,-0.196 -16.097,2.079"
   id="path171"
   inkscape:connector-curvature="0"
   style="fill:#e2e15d" />
		<g
   id="g173">
			<path
   d="m 250.3,442.842 c -16.358,3.189 -23.729,20.211 -19.611,35.434 1.855,6.86 6.682,13.127 13.343,15.846 5.259,2.146 11.275,2.591 16.868,3.313 7.96,1.026 15.997,1.418 24.015,1.619 15.494,0.388 30.995,-0.328 46.488,-0.459 16.299,-0.137 32.608,0.26 48.899,0.725 14.655,0.419 29.358,1.447 44.021,1.19 9.966,-0.175 20.399,-1.118 29.459,-5.574 14.351,-7.06 15.344,-28.189 6.036,-39.784 -4.684,-5.836 -11.266,-9.402 -18.553,-10.851 -12.453,-2.476 -25.773,-2.64 -38.424,-3.296 -26.961,-1.399 -53.966,-1.874 -80.956,-1.368 -13.111,0.245 -26.228,0.239 -39.337,0.521 -10.639,0.228 -21.944,-0.345 -32.248,2.684 -3.086,0.908 -1.771,5.733 1.329,4.822 5.804,-1.707 11.381,-1.833 17.341,-2.064 8.455,-0.327 16.906,-0.558 25.367,-0.569 16.413,-0.022 32.819,-0.611 49.232,-0.674 16.454,-0.063 32.936,0.572 49.376,1.205 15.838,0.609 32.543,0.688 48.128,3.786 11.267,2.239 19.026,11.269 19.624,22.669 0.289,5.521 -0.792,11.29 -4.733,15.331 -3.66,3.753 -9.24,5.32 -14.19,6.434 -11.708,2.634 -24.134,1.795 -36.017,1.372 -16.337,-0.58 -32.676,-1.102 -49.021,-1.384 -18.345,-0.315 -36.654,0.078 -54.995,0.327 -17.746,0.241 -36.382,0.388 -53.728,-3.864 -9.621,-2.359 -13.728,-12.834 -13.505,-21.816 0.256,-10.318 6.973,-18.774 17.12,-20.752 3.164,-0.618 1.822,-5.436 -1.328,-4.823 l 0,0 z"
   id="path175"
   inkscape:connector-curvature="0"
   style="fill:#d6ab4a" />
		</g>
	</g>
	<g
   id="g177">
		<path
   d="m 319.304,248.468 c -13.351,0.448 -18.648,15.898 -6.896,23.141 17.67,12.134 26.154,-23.786 6.896,-23.141"
   id="path179"
   inkscape:connector-curvature="0"
   style="fill:#3e3d40" />
	</g>
	<g
   id="g181">
		<g
   id="g183">
			<path
   d="m 209.663,399.887 c -1.346,-2.895 -3.618,-10.766 0.618,-12.062 4.105,-1.256 9.722,5.308 11.747,8.109 3.739,5.173 12.42,0.19 8.635,-5.047 -5.412,-7.487 -15.239,-16.351 -25.159,-11.918 -10.021,4.478 -8.298,17.748 -4.476,25.965 2.718,5.842 11.336,0.76 8.635,-5.047 l 0,0 z"
   id="path185"
   inkscape:connector-curvature="0"
   style="fill:#3e3d40" />
		</g>
	</g>
	<g
   id="g187">
		<g
   id="g189">
			<path
   d="m 477.174,384.455 c 0.283,1.704 -0.351,2.309 0.209,1.592 0.841,-1.079 1.882,-2.008 2.89,-2.925 1.958,-1.783 4.37,-3.487 6.91,-4.293 6.092,-1.931 6.153,7.694 5.349,11.126 -1.472,6.273 8.171,8.936 9.643,2.658 2.502,-10.668 -1.753,-24.491 -14.821,-23.829 -7.693,0.39 -21.283,9.544 -19.821,18.329 1.055,6.35 10.69,3.648 9.641,-2.658 l 0,0 z"
   id="path191"
   inkscape:connector-curvature="0"
   style="fill:#3e3d40" />
		</g>
	</g>
	<g
   id="g193">
		<path
   d="m 255,455.5 c -16,0 -16,22.5 -2.5,27.5 21.5,8 22.5,-22.5 3.5,-27.5"
   id="path195"
   inkscape:connector-curvature="0"
   style="fill:#3e3d40" />
	</g>
	<g
   id="g197">
		<path
   d="m 434.5,454.5 c -18.5,0 -21,25 -2.5,29.5 25,5.5 20.5,-31 1,-29"
   id="path199"
   inkscape:connector-curvature="0"
   style="fill:#3e3d40" />
	</g>
</g>
</svg>