<?xml version="1.0" encoding="UTF-8" standalone="no"?>
<!-- Generator: Adobe Illustrator 16.0.0, SVG Export Plug-In . SVG Version: 6.00 Build 0)  -->

<svg
   xmlns:dc="http://purl.org/dc/elements/1.1/"
   xmlns:cc="http://creativecommons.org/ns#"
   xmlns:rdf="http://www.w3.org/1999/02/22-rdf-syntax-ns#"
   xmlns:svg="http://www.w3.org/2000/svg"
   xmlns="http://www.w3.org/2000/svg"
   xmlns:sodipodi="http://sodipodi.sourceforge.net/DTD/sodipodi-0.dtd"
   xmlns:inkscape="http://www.inkscape.org/namespaces/inkscape"
   version="1.1"
   id="Calque_3"
   x="0px"
   y="0px"
   width="800px"
   height="841.89px"
   viewBox="0 0 800 841.89"
   enable-background="new 0 0 800 841.89"
   xml:space="preserve"
   inkscape:version="0.48.3.1 r9886"
   sodipodi:docname="robotrouge.svg"><metadata
   id="metadata111"><rdf:RDF><cc:Work
       rdf:about=""><dc:format>image/svg+xml</dc:format><dc:type
         rdf:resource="http://purl.org/dc/dcmitype/StillImage" /><dc:title></dc:title></cc:Work></rdf:RDF></metadata><defs
   id="defs109" /><sodipodi:namedview
   pagecolor="#ffffff"
   bordercolor="#666666"
   borderopacity="1"
   objecttolerance="10"
   gridtolerance="10"
   guidetolerance="10"
   inkscape:pageopacity="0"
   inkscape:pageshadow="2"
   inkscape:window-width="640"
   inkscape:window-height="480"
   id="namedview107"
   showgrid="false"
   inkscape:zoom="0.28032165"
   inkscape:cx="400"
   inkscape:cy="420.94501"
   inkscape:window-x="0"
   inkscape:window-y="27"
   inkscape:window-maximized="0"
   inkscape:current-layer="Calque_3" />
<g
   id="g3"
   transform="matrix(2.4986919,0,0,2.4986919,-472.87162,-405.99024)">
	<g
   id="g5">
		<path
   d="m 462.942,324.325 c 18.584,6.43 24.194,29.65 24.165,47.456 -0.011,6.449 9.989,6.448 10,0 0.02,-11.991 -2.875,-24.323 -7.637,-35.295 -4.726,-10.889 -12.703,-17.939 -23.87,-21.803 -6.111,-2.115 -8.713,7.547 -2.658,9.642 l 0,0 z"
   id="path7"
   inkscape:connector-curvature="0"
   style="fill:#3e3d40" />
	</g>
</g>
<g
   id="g9"
   transform="matrix(2.4986919,0,0,2.4986919,-472.87162,-405.99024)">
	<g
   id="g11">
		<path
   d="m 244.433,318.665 c -15.343,-2.791 -26.693,15.713 -32.019,27.641 -4.512,10.104 -14.785,32.595 -1.798,40.513 5.521,3.367 10.542,-5.284 5.047,-8.635 -2.557,-1.559 -0.671,-8.372 -0.164,-10.654 1.233,-5.55 3.273,-10.979 5.549,-16.178 1.747,-3.992 3.701,-7.856 6.182,-11.445 2.546,-3.683 9.195,-12.573 14.544,-11.601 6.304,1.148 8.997,-8.488 2.659,-9.641 l 0,0 z"
   id="path13"
   inkscape:connector-curvature="0"
   style="fill:#3e3d40" />
	</g>
</g>
<g
   id="g15"
   transform="matrix(2.4986919,0,0,2.4986919,-472.87162,-405.99024)">
	<path
   d="m 457.6,466.277 c 2.918,-14.135 5.867,-121.639 2.599,-161.16 -4.654,-56.281 -22.574,-109.789 -78.543,-121.983 -26.389,-5.75 -59.389,-1.783 -59.389,-1.783 -64.5,18.179 -79.945,67.168 -82.667,124.283 -2,41.979 -0.667,78.008 -0.667,117.672 0,13.883 -1.333,34.046 -0.667,47.598 L 457.6,466.277 c -24.667,3.306 -54,0 -80,1.322 -34.667,1.983 -69.333,2.644 -104,2.644 -10,0 -13.833,1.507 -29.333,0.847"
   id="path17"
   inkscape:connector-curvature="0"
   style="fill:#cc3a3a" />
	<g
   id="g19">
		<path
   d="m 460.011,466.942 c 2.23,-11.245 2.085,-23.249 2.572,-34.652 0.851,-19.891 1.286,-39.803 1.475,-59.71 0.371,-39.034 0.948,-79.125 -9.889,-116.991 -5.649,-19.741 -15.042,-38.774 -29.979,-53.134 -16.375,-15.743 -37.93,-22.438 -60.136,-24.323 -11.37,-0.965 -22.859,-0.758 -34.232,0.038 -7.477,0.523 -13.826,2.287 -20.924,4.981 -19.07,7.24 -35.74,19.206 -47.741,35.769 -21.558,29.753 -23.674,68.734 -24.717,104.097 -0.77,26.093 -0.349,52.2 -0.117,78.298 0.206,23.155 -1.57,46.468 -0.557,69.589 0.059,1.339 1.093,2.529 2.5,2.5 48.013,-1.013 96.025,-2.025 144.038,-3.038 25.099,-0.53 50.198,-1.06 75.296,-1.589 0,-1.667 0,-3.333 0,-5 -17.633,2.25 -35.464,1.471 -53.186,1.126 -19.448,-0.378 -38.786,0.939 -58.211,1.649 -19.614,0.716 -39.242,1.041 -58.868,1.154 -14.337,0.083 -28.75,1.428 -43.069,0.883 -3.226,-0.123 -3.214,4.878 0,5 13.683,0.521 27.409,-0.816 41.107,-0.873 20.281,-0.084 40.562,-0.449 60.831,-1.164 18.815,-0.665 37.553,-1.987 56.39,-1.682 18.332,0.297 36.763,1.234 55.007,-1.094 3.096,-0.395 3.314,-5.07 0,-5 -48.013,1.013 -96.025,2.025 -144.038,3.038 -25.099,0.53 -50.198,1.06 -75.296,1.589 0.833,0.833 1.667,1.667 2.5,2.5 -0.568,-12.966 0.206,-25.962 0.542,-38.925 0.373,-14.419 0.038,-28.867 -0.105,-43.289 -0.296,-29.854 -0.653,-59.798 1.27,-89.609 1.334,-20.683 4.688,-41.698 13.267,-60.715 8.432,-18.693 22.381,-33.684 40.219,-43.731 4.998,-2.815 10.257,-5.139 15.614,-7.173 3.772,-1.433 7.972,-3.333 12,-3.754 8.754,-0.916 17.579,-1.233 26.376,-1.181 24.468,0.145 48.929,4.725 67.997,21.006 32.064,27.379 38.887,75.459 40.547,115.127 1.186,28.356 0.73,56.816 0.031,85.179 -0.322,13.059 -0.764,26.116 -1.445,39.161 -0.39,7.46 -0.43,15.258 -1.889,22.611 -0.627,3.152 4.192,4.494 4.82,1.332 l 0,0 z"
   id="path21"
   inkscape:connector-curvature="0"
   style="fill:#93141b" />
	</g>
</g>
<g
   id="g23"
   transform="matrix(2.4986919,0,0,2.4986919,-472.87162,-405.99024)">
	<g
   id="g25">
		<path
   d="m 360.196,471.051 -77.386,1.746 c 25.795,-0.091 51.591,-0.586 77.386,-1.746 z"
   id="path27"
   inkscape:connector-curvature="0"
   style="fill:#be0a26" />
	</g>
	<g
   id="g29">
		<path
   d="m 408.918,469.952 -2.8,0.063 c 0.936,0.019 1.869,0.036 2.805,0.057 -10e-4,-0.041 -0.004,-0.081 -0.005,-0.12 z"
   id="path31"
   inkscape:connector-curvature="0"
   style="fill:#be0a26" />
	</g>
	<g
   id="g33">
		<path
   d="m 264.754,473.204 -20.489,0.462 c 10.176,0.434 15.324,-0.067 20.489,-0.462 z"
   id="path35"
   inkscape:connector-curvature="0"
   style="fill:#be0a26" />
	</g>
	<g
   id="g37">
		<path
   d="m 411.057,464.945 c -0.442,-13.73 -38.331,-18.805 -48.718,-25.881 -77.386,-52.716 -15.196,-2.143 49.205,-45.536 14.298,-9.634 -110.401,-25.089 -97.901,-40.589 9.5,-12 80,-45.375 122.883,-54.22 14.724,-3.037 -59.883,-7.155 -81.837,-0.184 -13.454,4.271 -28.046,-1.971 -32.046,-16.471 -3.5,-13 -4.5,-28.5 -3.5,-41.5 1,-13 7.5,-26.5 3.5,-39 -1.78,-6.525 -5.499,-12.871 -9.688,-18.836 -54.915,20.557 -68.661,66.977 -71.213,120.546 -2,41.979 -0.667,78.008 -0.667,117.672 0,13.882 -1.333,34.046 -0.667,47.597 l 127.715,-2.693 c -1.928,0.094 -3.856,0.178 -5.784,0.264 l 45.922,-1.035 c -0.621,-0.014 -1.242,-0.025 -1.863,-0.037 l 4.659,-0.097 z"
   id="path39"
   inkscape:connector-curvature="0"
   style="fill:#be0a26" />
	</g>
	<g
   id="g41">
		<path
   d="m 264.754,473.204 18.056,-0.407 c -3.07,0.011 -6.141,0.022 -9.211,0.022 -3.435,0 -6.142,0.178 -8.845,0.385 z"
   id="path43"
   inkscape:connector-curvature="0"
   style="fill:#be0a26" />
	</g>
</g>
<g
   id="g45"
   transform="matrix(2.4986919,0,0,2.4986919,-472.87162,-405.99024)">
	<path
   d="m 435.509,295.726 c -66.239,0.319 -114.142,7.319 -166.686,-3.846 l -1.086,-0.384 c -5.43,-11.538 -4.919,-20.7 -5.43,-29.613 -0.881,-15.405 5.43,-25.767 14.66,-36.919 21.175,-23.844 72.213,-33.843 108.048,-23.075 27.148,8.077 47.784,25.222 52.67,45.99 1.629,8.076 0.377,37.173 -1.634,46.693"
   id="path47"
   inkscape:connector-curvature="0"
   style="fill:#ffffff" />
	<g
   id="g49">
		<path
   d="m 435.509,293.226 c -55.168,0.321 -111.493,7.654 -166.021,-3.757 -1.066,-0.223 -2.448,-7.039 -2.811,-8.438 -0.813,-3.142 -1.162,-6.38 -1.411,-9.607 -0.507,-6.578 -1,-13.422 0.142,-19.943 2.05,-11.7 10.262,-22.797 19.141,-30.355 17.658,-15.03 43.483,-20.436 66.048,-21.025 27.639,-0.723 57.831,8.486 75.801,30.529 7.358,9.026 9.495,18.748 9.535,30.035 0.039,10.953 -0.136,22.468 -2.293,33.243 -0.63,3.148 4.189,4.489 4.822,1.329 1.774,-8.867 2.073,-18.117 2.357,-27.128 0.27,-8.548 0.688,-17.432 -2.127,-25.62 -7.438,-21.634 -29.328,-35.098 -49.911,-42.038 -21.972,-7.409 -46.5,-6.706 -68.826,-1.305 -21.426,5.183 -40.281,15.713 -52.473,34.414 -9.517,14.597 -9.483,33.913 -5.225,50.361 0.663,2.56 1.935,8.969 4.813,9.987 4.25,1.504 9.057,1.973 13.496,2.708 9.371,1.551 18.83,2.545 28.303,3.201 42.113,2.916 84.495,-1.344 126.638,-1.589 3.225,-0.021 3.227,-5.021 0.002,-5.002 l 0,0 z"
   id="path51"
   inkscape:connector-curvature="0"
   style="fill:#f6f6f6" />
	</g>
</g>
<g
   id="g53"
   transform="matrix(2.4986919,0,0,2.4986919,-472.87162,-405.99024)">
	<path
   d="m 398.669,248.479 c -13.047,0.438 -18.224,15.537 -6.737,22.616 17.269,11.859 25.557,-23.247 6.737,-22.616"
   id="path55"
   inkscape:connector-curvature="0"
   style="fill:#3e3d40" />
</g>
<g
   id="g57"
   transform="matrix(2.4986919,0,0,2.4986919,-472.87162,-405.99024)">
	<path
   d="m 265,203 c 4.5,9.5 18.329,5.87 19,-3.5 0.949,-13.25 -14.5,-5 -19,3.5"
   id="path59"
   inkscape:connector-curvature="0"
   style="fill:#e2001a" />
	<g
   id="g61">
		<path
   d="m 262.841,204.262 c 6.435,12.303 24.806,6.135 23.614,-7.333 -0.497,-5.621 -5.207,-7.778 -10.263,-6.348 -5.517,1.56 -10.597,6.246 -13.352,11.158 -1.579,2.815 2.74,5.335 4.317,2.523 1.188,-2.118 12.006,-13.582 14.096,-8.024 3.277,8.717 -9.965,13.397 -14.096,5.5 -1.493,-2.858 -5.808,-0.33 -4.316,2.524 l 0,0 z"
   id="path63"
   inkscape:connector-curvature="0"
   style="fill:#e2001a" />
	</g>
</g>
<g
   id="g65"
   transform="matrix(2.4986919,0,0,2.4986919,-472.87162,-405.99024)">
	<path
   d="m 434.383,203 c -4.926,9.5 -20.06,5.87 -20.795,-3.5 -1.039,-13.25 15.869,-5 20.795,3.5"
   id="path67"
   inkscape:connector-curvature="0"
   style="fill:#e2001a" />
	<g
   id="g69">
		<path
   d="m 432.225,201.738 c -4.302,7.492 -17.907,4.35 -16.012,-4.995 0.689,-3.399 5.848,-0.968 7.609,-0.072 3.362,1.71 6.422,4.375 8.402,7.591 1.687,2.74 6.013,0.23 4.316,-2.523 -3.233,-5.252 -8.61,-9.331 -14.489,-11.163 -5.054,-1.575 -10.292,0.598 -10.898,6.239 -1.531,14.244 18.588,19.292 25.388,7.447 1.608,-2.801 -2.712,-5.319 -4.316,-2.524 l 0,0 z"
   id="path71"
   inkscape:connector-curvature="0"
   style="fill:#e2001a" />
	</g>
</g>
<path
   d="m 571.19679,561.0035 c 0,16.56134 -13.42298,29.98431 -29.98431,29.98431 H 289.46177 c -16.55882,0 -29.98429,-13.42297 -29.98429,-29.98431 v -42.79009 c 0,-16.56133 13.42547,-29.98431 29.98429,-29.98431 h 251.75071 c 16.56133,0 29.98431,13.42298 29.98431,29.98431 v 42.79009 z"
   id="path73"
   inkscape:connector-curvature="0"
   style="fill:#e8504c" />
<g
   id="g75"
   transform="matrix(2.4986919,0,0,2.4986919,-472.87162,-405.99024)">
	<path
   d="m 250.965,445.253 c -25.118,4.334 -24.578,42.81 -2.676,47.62 27.875,5.771 58.31,3.208 86.754,3.208 27.021,0 53.759,0.961 80.498,1.923 17.92,0.32 43.084,-0.622 46.732,-16.953 4.681,-20.944 -8.903,-33.066 -23.979,-34.67 -24.176,-2.886 -48.639,-3.528 -73.1,-4.169 -24.177,-0.962 -48.64,0.321 -72.817,0.321 -8.533,0 -17.066,0.319 -25.315,0.641 -2.844,0 -8.946,-0.196 -16.097,2.079"
   id="path77"
   inkscape:connector-curvature="0"
   style="fill:#cc3a3a" />
	<g
   id="g79">
		<path
   d="m 250.3,442.842 c -16.358,3.189 -23.729,20.211 -19.611,35.434 1.855,6.86 6.682,13.127 13.343,15.846 5.259,2.146 11.275,2.591 16.868,3.313 7.96,1.026 15.997,1.418 24.015,1.619 15.494,0.388 30.995,-0.328 46.488,-0.459 16.299,-0.137 32.608,0.26 48.899,0.725 14.655,0.419 29.358,1.447 44.021,1.19 9.966,-0.175 20.399,-1.118 29.459,-5.574 14.351,-7.06 15.344,-28.189 6.036,-39.784 -4.684,-5.836 -11.266,-9.402 -18.553,-10.851 -12.453,-2.476 -25.773,-2.64 -38.424,-3.296 -26.961,-1.399 -53.966,-1.874 -80.956,-1.368 -13.111,0.245 -26.228,0.239 -39.337,0.521 -10.639,0.228 -21.944,-0.345 -32.248,2.684 -3.086,0.908 -1.771,5.733 1.329,4.822 5.804,-1.707 11.381,-1.833 17.341,-2.064 8.455,-0.327 16.906,-0.558 25.367,-0.569 16.413,-0.022 32.819,-0.611 49.232,-0.674 16.454,-0.063 32.936,0.572 49.376,1.205 15.838,0.609 32.543,0.688 48.128,3.786 11.267,2.239 19.026,11.269 19.624,22.669 0.289,5.521 -0.792,11.29 -4.733,15.331 -3.66,3.753 -9.24,5.32 -14.19,6.434 -11.708,2.634 -24.134,1.795 -36.017,1.372 -16.337,-0.58 -32.676,-1.102 -49.021,-1.384 -18.345,-0.315 -36.654,0.078 -54.995,0.327 -17.746,0.241 -36.382,0.388 -53.728,-3.864 -9.621,-2.359 -13.728,-12.834 -13.505,-21.816 0.256,-10.318 6.973,-18.774 17.12,-20.752 3.164,-0.618 1.822,-5.436 -1.328,-4.823 l 0,0 z"
   id="path81"
   inkscape:connector-curvature="0"
   style="fill:#93141b" />
	</g>
</g>
<g
   id="g83"
   transform="matrix(2.4986919,0,0,2.4986919,-472.87162,-405.99024)">
	<path
   d="m 319.304,248.468 c -13.351,0.448 -18.648,15.898 -6.896,23.141 17.67,12.134 26.154,-23.786 6.896,-23.141"
   id="path85"
   inkscape:connector-curvature="0"
   style="fill:#3e3d40" />
</g>
<g
   id="g87"
   transform="matrix(2.4986919,0,0,2.4986919,-472.87162,-405.99024)">
	<g
   id="g89">
		<path
   d="m 209.663,399.887 c -1.346,-2.895 -3.618,-10.766 0.618,-12.062 4.105,-1.256 9.722,5.308 11.747,8.109 3.739,5.173 12.42,0.19 8.635,-5.047 -5.412,-7.487 -15.239,-16.351 -25.159,-11.918 -10.021,4.478 -8.298,17.748 -4.476,25.965 2.718,5.842 11.336,0.76 8.635,-5.047 l 0,0 z"
   id="path91"
   inkscape:connector-curvature="0"
   style="fill:#3e3d40" />
	</g>
</g>
<g
   id="g93"
   transform="matrix(2.4986919,0,0,2.4986919,-472.87162,-405.99024)">
	<g
   id="g95">
		<path
   d="m 477.174,384.455 c 0.283,1.704 -0.351,2.309 0.209,1.592 0.841,-1.079 1.882,-2.008 2.89,-2.925 1.958,-1.783 4.37,-3.487 6.91,-4.293 6.092,-1.931 6.153,7.694 5.349,11.126 -1.472,6.273 8.171,8.936 9.643,2.658 2.502,-10.668 -1.753,-24.491 -14.821,-23.829 -7.693,0.39 -21.283,9.544 -19.821,18.329 1.055,6.35 10.69,3.648 9.641,-2.658 l 0,0 z"
   id="path97"
   inkscape:connector-curvature="0"
   style="fill:#3e3d40" />
	</g>
</g>
<g
   id="g99"
   transform="matrix(2.4986919,0,0,2.4986919,-472.87162,-405.99024)">
	<path
   d="m 255,455.5 c -16,0 -16,22.5 -2.5,27.5 21.5,8 22.5,-22.5 3.5,-27.5"
   id="path101"
   inkscape:connector-curvature="0"
   style="fill:#3e3d40" />
</g>
<g
   id="g103"
   transform="matrix(2.4986919,0,0,2.4986919,-472.87162,-405.99024)">
	<path
   d="m 434.5,454.5 c -18.5,0 -21,25 -2.5,29.5 25,5.5 20.5,-31 1,-29"
   id="path105"
   inkscape:connector-curvature="0"
   style="fill:#3e3d40" />
</g>
</svg>